<svg xmlns="http://www.w3.org/2000/svg" viewBox="0 0 1180 200">
  <defs>
    <linearGradient id="scr" x1="0" y1="0" x2="0.4" y2="1">
      <stop offset="0" stop-color="#5C97F6"/>
      <stop offset="1" stop-color="#2A63D9"/>
    </linearGradient>
    <linearGradient id="bill" x1="0" y1="0" x2="0" y2="1">
      <stop offset="0" stop-color="#36BC5D"/>
      <stop offset="1" stop-color="#1C863A"/>
    </linearGradient>
  </defs>
  <g transform="translate(4,8) scale(0.92)">
    <rect x="20" y="118" width="14" height="32" rx="3.5" fill="#FBBF24"/>
    <rect x="38" y="100" width="14" height="50" rx="3.5" fill="#FBBF24"/>
    <rect x="56" y="82" width="14" height="68" rx="3.5" fill="#FBBF24"/>
    <path d="M38 150 Q72 152 150 54" fill="none" stroke="#1EA64A" stroke-width="14" stroke-linecap="round"/>
    <path d="M167 38 L141 44 L158 66 Z" fill="#1EA64A"/>
    <rect x="66" y="34" width="78" height="144" rx="19" fill="#1E3A8A"/>
    <rect x="73" y="41" width="64" height="130" rx="13" fill="url(#scr)"/>
    <rect x="93" y="49" width="24" height="6" rx="3" fill="#1E3A8A"/>
    <g transform="rotate(-20 102 108)">
      <rect x="40" y="83" width="124" height="50" rx="13" fill="#FFFFFF"/>
      <rect x="47" y="90" width="110" height="36" rx="8" fill="url(#bill)"/>
      <circle cx="102" cy="108" r="15.5" fill="none" stroke="#85DA98" stroke-width="3.6"/>
      <text x="102" y="116" font-family="Arial, Helvetica, sans-serif" font-size="22" font-weight="bold" fill="#FFFFFF" text-anchor="middle">$</text>
      <circle cx="61" cy="99" r="3.6" fill="#85DA98"/>
      <circle cx="143" cy="117" r="3.6" fill="#85DA98"/>
    </g>
  </g>
  <text x="210" y="135" font-family="'Plus Jakarta Sans', Arial, Helvetica, sans-serif" font-size="100" font-weight="800">
    <tspan fill="#1EA64A">Tu</tspan><tspan fill="#1E3A8A">Presupuesto</tspan>
  </text>
</svg>
